<?xml version="1.0" encoding="UTF-8"?>
<svg width="140px" height="26px" viewBox="0 0 140 26" version="1.1" xmlns="http://www.w3.org/2000/svg" xmlns:xlink="http://www.w3.org/1999/xlink">
    <!-- Generator: sketchtool 54.1 (76490) - https://sketchapp.com -->
    <title>F7E0AB1D-1355-4A29-8735-44C57A54E468</title>
    <desc>Created with sketchtool.</desc>
    <g id="Help-hub" stroke="none" stroke-width="1" fill="none" fill-rule="evenodd">
        <g id="Help-Hub_Home" transform="translate(-39.000000, -27.000000)" fill="#FFFFFF" fill-rule="nonzero">
            <g id="header">
                <g id="ODS-Help-Hub" transform="translate(39.000000, 27.000000)">
                    <path d="M7.54310345,13.495814 C7.64253656,13.2418472 7.68974504,12.9703715 7.68189655,12.6976744 C7.68250684,12.4334217 7.63548805,12.1712303 7.54310345,11.9237209 C7.45271283,11.6850118 7.31520098,11.4670221 7.1387931,11.2827907 C6.96714848,11.1020444 6.76223643,10.9562669 6.53534483,10.8534884 C6.29768164,10.7486974 6.04068809,10.6951362 5.78103448,10.6962791 C5.51932417,10.7055167 5.26241506,10.7693572 5.02672414,10.8837209 C4.79606846,10.9769879 4.58968416,11.1217449 4.42327586,11.3069767 C4.26040487,11.4832977 4.13150988,11.6883008 4.04310345,11.9116279 C3.9549053,12.1639602 3.91398883,12.4304474 3.92241379,12.6976744 C3.92029624,12.964577 3.96946642,13.2293935 4.06724138,13.4776744 C4.1606073,13.7012347 4.29348529,13.9060699 4.45948276,14.0823256 C4.63112738,14.2630718 4.83603944,14.4088494 5.06293103,14.5116279 C5.30019749,14.6176555 5.55745951,14.6712726 5.81724138,14.6688372 C6.59362314,14.6795922 7.29039347,14.1930701 7.54913793,13.4595349 L7.54310345,13.495814 Z M12.937931,13.3144186 C13.0987272,12.8669288 13.0987272,12.3772573 12.937931,11.9297674 C12.8598394,11.7358112 12.7473994,11.5575971 12.6060345,11.4037209 C12.4728962,11.2567336 12.3104994,11.1393277 12.1293103,11.0590698 C11.9479495,10.9822874 11.7529174,10.9432033 11.5560345,10.944186 C11.3590366,10.9419902 11.16376,10.9811234 10.9827586,11.0590698 C10.801291,11.1304559 10.6383087,11.2420836 10.5060345,11.3855814 C10.3631367,11.5394344 10.2523487,11.7203377 10.1801724,11.9176744 C10.0970758,12.1441011 10.056168,12.3838889 10.0594828,12.6251163 C10.0572343,12.8623199 10.0981318,13.0979497 10.1801724,13.3204651 C10.2523487,13.5178018 10.3631367,13.6987051 10.5060345,13.8525581 C10.6397536,13.9958625 10.8022192,14.109197 10.9827586,14.1851163 C11.1633123,14.2651392 11.3586066,14.3063358 11.5560345,14.3060465 C11.753317,14.3049508 11.9483324,14.2638131 12.1293103,14.1851163 C12.3102194,14.107104 12.4726654,13.9917229 12.6060345,13.8465116 C12.7474856,13.6904259 12.8598926,13.5102163 12.937931,13.3144186 L12.937931,13.3144186 Z M16.8965517,11.3855814 L16.8965517,11.3855814 C16.8965517,11.5972093 17.1982759,11.6939535 17.7655172,11.8632558 C18.8215517,12.1595349 19.6543103,12.5223256 19.6543103,13.5623256 L19.6543103,13.5623256 C19.6543103,14.7716279 18.7793103,15.3762791 17.4758621,15.3762791 C16.5725703,15.3864826 15.6893585,15.1091348 14.9534483,14.584186 L15.6534483,13.4474419 C16.1884919,13.814859 16.8157465,14.0243607 17.4637931,14.052093 C17.7896552,14.052093 17.9344828,13.9493023 17.9344828,13.7618605 L17.9344828,13.7618605 C17.9344828,13.5562791 17.6387931,13.4655814 17.0775862,13.3083721 C16.0215517,13.0302326 15.1827586,12.6734884 15.1827586,11.5972093 L15.1827586,11.5972093 C15.1827586,10.4604651 16.0939655,9.8255814 17.325,9.8255814 C18.0989175,9.81958641 18.8593139,10.0289029 19.5215517,10.4302326 L18.8818966,11.6395349 C18.4014848,11.3570593 17.862506,11.1894566 17.3068966,11.1497674 C17.0172414,11.1497674 16.8724138,11.2586047 16.8724138,11.4037209 L16.8965517,11.3855814 Z M14.2413793,15.2674419 L13.0344828,15.2674419 L13.0344828,14.4027907 C12.8427358,14.6823068 12.6013738,14.9241499 12.3224138,15.1162791 C12.0050868,15.3161431 11.634867,15.4152057 11.2603448,15.4004651 C10.6344415,15.4053641 10.0341739,15.1516556 9.60086207,14.6990698 C9.36805943,14.4492428 9.18386751,14.1580496 9.05775862,13.8404651 C8.91370352,13.4729199 8.84396264,13.0803592 8.85258621,12.6855814 C8.83963716,12.2772657 8.90731178,11.8704086 9.05172414,11.4883721 C9.17576787,11.1711281 9.35792109,10.8799222 9.5887931,10.6297674 C9.80464889,10.3997836 10.068351,10.2201914 10.3612069,10.1037209 C10.6461003,9.98460469 10.9516441,9.92296318 11.2603448,9.92232558 C11.635996,9.90716249 12.0076986,10.0039557 12.3284483,10.2004651 C12.6010226,10.3861271 12.8398242,10.6172243 13.0344828,10.8837209 L13.0344828,8.05395349 L14.2413793,8.05395349 L14.2413793,15.2674419 Z M8.44827586,12.6976744 C8.44987957,13.0520451 8.3822279,13.4033025 8.24913793,13.7316279 C8.12111756,14.0492558 7.93254505,14.3388398 7.69396552,14.584186 C7.18844774,15.0987393 6.49554805,15.3847481 5.775,15.3762791 C5.41227303,15.3785882 5.05290405,15.3065711 4.71896552,15.1646512 C4.40435176,15.0169878 4.11991149,14.8119466 3.88017241,14.56 C3.64356004,14.3165912 3.45698055,14.0289736 3.33103448,13.7134884 C3.19735375,13.3874536 3.12966365,13.038052 3.13189655,12.6855814 C3.13029285,12.3312107 3.19794451,11.9799533 3.33103448,11.6516279 C3.45684248,11.3342792 3.64339137,11.0446548 3.88017241,10.7990698 C4.12122909,10.5459654 4.40787274,10.3408118 4.725,10.1944186 C5.06494618,10.0513814 5.430451,9.97936926 5.79913793,9.9827907 C6.5125421,9.97765249 7.19785992,10.2610458 7.7,10.7688372 C7.93853167,11.0119089 8.12715146,11.2995111 8.25517241,11.6153488 C8.39404975,11.958716 8.45982188,12.3273623 8.44827586,12.6976744 L8.44827586,12.6976744 Z M22.1646552,12.3469767 C22.1622077,7.97317129 19.5298824,4.03174337 15.4956497,2.36135491 C11.4614169,0.690966457 6.82016819,1.62074515 3.73702932,4.71695258 C0.653890448,7.81316 -0.263647321,12.4657299 1.41244407,16.5042553 C3.08853547,20.5427806 7.02800466,23.171524 11.3931034,23.164186 C17.3487327,23.164186 22.1767241,18.3265707 22.1767241,12.3590698 L22.1646552,12.3469767 Z" id="Shape"></path>
                    <path d="M27.8431034,0 L30.0396552,0 L30.0396552,8.65860465 C31.0523591,6.8292452 32.9974845,5.71719462 35.0844828,5.7744186 C38.6508621,5.7744186 40.7327586,8.19302326 40.7327586,11.687907 L40.7327586,20.8665116 L38.5422414,20.8665116 L38.5422414,12.232093 C38.5422414,9.48697674 37.0577586,7.77581395 34.4568966,7.77581395 C31.8560345,7.77581395 30.0396552,9.63209302 30.0396552,12.4074419 L30.0396552,20.8725581 L27.8431034,20.8725581 L27.8431034,0 Z" id="Path"></path>
                    <path d="M44.5043103,13.52 L44.5043103,13.4655814 C44.5043103,9.23302326 47.5215517,5.7744186 51.5767241,5.7744186 C55.9456897,5.7744186 58.4560345,9.26325581 58.4560345,13.5744186 C58.4616867,13.8146666 58.4516076,14.0550274 58.4258621,14.2939535 L46.7310345,14.2939535 C47.0448276,17.4925581 49.2956897,19.2944186 51.9206897,19.2944186 C53.700871,19.3118157 55.4000034,18.549988 56.5732759,17.2083721 L57.937069,18.4176744 C56.4585394,20.2289051 54.2313532,21.2588863 51.8965517,21.2111628 C47.8112069,21.2111628 44.5043103,18.0911628 44.5043103,13.52 Z M56.2293103,12.6613953 C56,9.97674419 54.4612069,7.63069767 51.5224138,7.63069767 C48.9517241,7.63069767 47.0146552,9.7772093 46.7310345,12.6613953 L56.2293103,12.6613953 Z" id="Shape"></path>
                    <polygon id="Path" points="62.5051724 0 64.7017241 0 64.7017241 20.8665116 62.5051724 20.8665116"></polygon>
                    <path d="M69.8068966,6.08883721 L72.0034483,6.08883721 L72.0034483,9.06976744 C73.2103448,7.29813953 74.9422414,5.78651163 77.6517241,5.78651163 C81.1939655,5.78651163 84.7,8.58604651 84.7,13.4474419 L84.7,13.5018605 C84.7,18.3390698 81.2181034,21.1930233 77.6517241,21.1930233 C75.3540851,21.1900149 73.2198445,20.0019622 72.0034483,18.0488372 L72.0034483,25.4376744 L69.8068966,25.4376744 L69.8068966,6.08883721 Z M82.4491379,13.52 L82.4491379,13.4655814 C82.4491379,9.97674419 80.0353448,7.7455814 77.2534483,7.7455814 C75.79199,7.78818534 74.4076718,8.41236906 73.4066055,9.48010782 C72.4055393,10.5478466 71.8701997,11.9711729 71.9189655,13.4353488 L71.9189655,13.4897674 C71.8603128,14.9574796 72.3897801,16.3877607 73.38947,17.4621279 C74.3891599,18.536495 75.7760716,19.165747 77.2413793,19.2097674 C80.1077586,19.2097674 82.4491379,17.0934884 82.4491379,13.52 Z" id="Shape"></path>
                    <path d="M88.2422414,0 L92.575,0 L92.575,7.71534884 C93.5767241,6.43348837 94.8560345,5.26046512 97.0525862,5.26046512 C100.335345,5.26046512 102.248276,7.43116279 102.248276,10.944186 L102.248276,20.8665116 L97.9094828,20.8665116 L97.9094828,12.3167442 C97.9094828,10.2609302 96.937931,9.2027907 95.2844828,9.2027907 C93.6310345,9.2027907 92.575,10.2609302 92.575,12.3167442 L92.575,20.8665116 L88.2422414,20.8665116 L88.2422414,0 Z" id="Path"></path>
                    <path d="M105.899138,15.4609302 L105.899138,5.54465116 L110.237931,5.54465116 L110.237931,14.0883721 C110.237931,16.1502326 111.203448,17.2083721 112.856897,17.2083721 C114.510345,17.2083721 115.572414,16.1502326 115.572414,14.0883721 L115.572414,5.54465116 L119.905172,5.54465116 L119.905172,20.8665116 L115.572414,20.8665116 L115.572414,18.695814 C114.57069,19.9534884 113.285345,21.1627907 111.088793,21.1627907 C107.812069,21.1627907 105.899138,18.98 105.899138,15.4609302 Z" id="Path"></path>
                    <path d="M128.124138,18.8651163 L128.124138,20.8665116 L123.785345,20.8665116 L123.785345,0 L128.124138,0 L128.124138,7.7455814 C129.18799,6.16186169 130.980399,5.2263123 132.885345,5.26046512 C136.451724,5.26046512 139.849138,8.06 139.849138,13.1753488 L139.849138,13.235814 C139.849138,18.3511628 136.512069,21.1506977 132.885345,21.1506977 C131.02687,21.186075 129.261226,20.338491 128.124138,18.8651163 Z M135.510345,13.235814 L135.510345,13.1753488 C135.510345,10.6297674 133.802586,8.9427907 131.775,8.9427907 C129.747414,8.9427907 128.063793,10.6237209 128.063793,13.1753488 L128.063793,13.235814 C128.063793,15.7753488 129.747414,17.4683721 131.775,17.4683721 C133.802586,17.4683721 135.510345,15.8055814 135.510345,13.235814 Z" id="Shape"></path>
                </g>
            </g>
        </g>
    </g>
</svg>