<svg width="28" height="28" viewBox="0 0 28 28" fill="none" xmlns="http://www.w3.org/2000/svg">
<path d="M9.33342 7.00002C9.33342 8.28869 8.28875 9.33335 7.00008 9.33335C5.71142 9.33335 4.66675 8.28869 4.66675 7.00002C4.66675 5.71136 5.71142 4.66669 7.00008 4.66669C8.28875 4.66669 9.33342 5.71136 9.33342 7.00002Z" fill="black"/>
<path d="M16.3334 7.00002C16.3334 8.28869 15.2887 9.33335 14.0001 9.33335C12.7114 9.33335 11.6667 8.28869 11.6667 7.00002C11.6667 5.71136 12.7114 4.66669 14.0001 4.66669C15.2887 4.66669 16.3334 5.71136 16.3334 7.00002Z" fill="black"/>
<path d="M23.3334 7.00002C23.3334 8.28869 22.2887 9.33335 21.0001 9.33335C19.7114 9.33335 18.6667 8.28869 18.6667 7.00002C18.6667 5.71136 19.7114 4.66669 21.0001 4.66669C22.2887 4.66669 23.3334 5.71136 23.3334 7.00002Z" fill="black"/>
<path d="M9.33342 14C9.33342 15.2887 8.28875 16.3334 7.00008 16.3334C5.71142 16.3334 4.66675 15.2887 4.66675 14C4.66675 12.7114 5.71142 11.6667 7.00008 11.6667C8.28875 11.6667 9.33342 12.7114 9.33342 14Z" fill="black"/>
<path d="M16.3334 14C16.3334 15.2887 15.2887 16.3334 14.0001 16.3334C12.7114 16.3334 11.6667 15.2887 11.6667 14C11.6667 12.7114 12.7114 11.6667 14.0001 11.6667C15.2887 11.6667 16.3334 12.7114 16.3334 14Z" fill="black"/>
<path d="M23.3334 14C23.3334 15.2887 22.2887 16.3334 21.0001 16.3334C19.7114 16.3334 18.6667 15.2887 18.6667 14C18.6667 12.7114 19.7114 11.6667 21.0001 11.6667C22.2887 11.6667 23.3334 12.7114 23.3334 14Z" fill="black"/>
<path d="M9.33342 21C9.33342 22.2887 8.28875 23.3334 7.00008 23.3334C5.71142 23.3334 4.66675 22.2887 4.66675 21C4.66675 19.7114 5.71142 18.6667 7.00008 18.6667C8.28875 18.6667 9.33342 19.7114 9.33342 21Z" fill="black"/>
<path d="M16.3334 21C16.3334 22.2887 15.2887 23.3334 14.0001 23.3334C12.7114 23.3334 11.6667 22.2887 11.6667 21C11.6667 19.7114 12.7114 18.6667 14.0001 18.6667C15.2887 18.6667 16.3334 19.7114 16.3334 21Z" fill="black"/>
<path d="M23.3334 21C23.3334 22.2887 22.2887 23.3334 21.0001 23.3334C19.7114 23.3334 18.6667 22.2887 18.6667 21C18.6667 19.7114 19.7114 18.6667 21.0001 18.6667C22.2887 18.6667 23.3334 19.7114 23.3334 21Z" fill="black"/>
</svg>
