<?xml version="1.0" encoding="utf-8"?>
<!-- Generator: Adobe Illustrator 23.0.1, SVG Export Plug-In . SVG Version: 6.00 Build 0)  -->
<svg version="1.1" id="Layer_1" xmlns="http://www.w3.org/2000/svg" xmlns:xlink="http://www.w3.org/1999/xlink" x="0px" y="0px"
	 viewBox="0 0 334 50" style="enable-background:new 0 0 334 50;" xml:space="preserve">
<g>
	<path d="M1.92,26.75v-0.1c0-7.06,5.48-13.18,12.99-13.18c7.46,0,12.89,6.02,12.89,13.09v0.1c0,7.06-5.48,13.18-12.99,13.18
		C7.35,39.84,1.92,33.81,1.92,26.75z M25.18,26.75v-0.1c0-6.07-4.54-10.91-10.37-10.91c-5.98,0-10.27,4.89-10.27,10.81v0.1
		c0,6.07,4.54,10.91,10.37,10.91C20.89,37.56,25.18,32.68,25.18,26.75z"/>
	<path d="M35.25,14.06h2.42v5.63c2.17-3.31,5.38-6.22,10.37-6.22c6.07,0,12.25,4.89,12.25,13.09v0.1c0,8.2-6.17,13.18-12.25,13.18
		c-5.04,0-8.3-2.86-10.37-6.02v13.33h-2.42V14.06z M57.67,26.75v-0.1c0-6.62-4.59-10.86-9.88-10.86c-5.23,0-10.27,4.39-10.27,10.81
		v0.1c0,6.47,5.04,10.81,10.27,10.81C53.28,37.51,57.67,33.51,57.67,26.75z"/>
	<path d="M66.11,26.7v-0.1c0-7.31,5.14-13.14,11.95-13.14c7.06,0,11.56,5.73,11.56,13.18c0,0.44,0,0.59-0.05,0.99H68.68
		c0.44,6.27,4.94,9.93,9.88,9.93c3.9,0,6.57-1.73,8.64-3.95l1.68,1.48c-2.57,2.77-5.58,4.74-10.42,4.74
		C71.84,39.84,66.11,34.55,66.11,26.7z M87,25.47c-0.35-5.09-3.26-9.78-9.04-9.78c-4.99,0-8.84,4.2-9.28,9.78H87z"/>
	<path d="M96.67,14.06h2.42v4.69c1.68-2.96,4.49-5.28,9.09-5.28c6.37,0,10.07,4.35,10.07,10.37v15.41h-2.42V24.28
		c0-5.19-2.91-8.59-8-8.59c-4.94,0-8.74,3.75-8.74,8.99v14.57h-2.42V14.06z"/>
	<path d="M126.16,26.55v-0.1c0-8.35,6.07-13.28,12.2-13.28c4.74,0,7.8,2.57,9.78,5.43V3.19h3.8v36.05h-3.8v-5.14
		c-2.07,3.06-5.09,5.68-9.78,5.68C132.24,39.79,126.16,34.95,126.16,26.55z M148.29,26.5v-0.1c0-5.88-4.49-9.83-9.23-9.83
		c-4.94,0-8.99,3.65-8.99,9.83v0.1c0,6.02,4.15,9.88,8.99,9.88C143.79,36.38,148.29,32.38,148.29,26.5z"/>
	<path d="M158.5,31.84v-0.1c0-5.48,4.44-8.35,10.91-8.35c3.26,0,5.53,0.44,7.8,1.09v-0.79c0-4.54-2.77-6.91-7.56-6.91
		c-3.01,0-5.38,0.74-7.75,1.83l-1.14-3.11c2.81-1.28,5.53-2.17,9.28-2.17c3.6,0,6.42,0.99,8.25,2.81c1.78,1.78,2.67,4.25,2.67,7.51
		v15.6h-3.75v-3.8c-1.78,2.27-4.69,4.35-9.19,4.35C163.24,39.79,158.5,37.07,158.5,31.84z M177.27,29.86v-2.37
		c-1.88-0.54-4.35-1.09-7.46-1.09c-4.74,0-7.46,2.07-7.46,5.14v0.1c0,3.21,2.96,5.09,6.42,5.09
		C173.47,36.72,177.27,33.91,177.27,29.86z"/>
	<path d="M190.1,32.48V17.07h-3.56v-3.36h3.56v-7.7h3.8v7.7h8.1v3.36h-8.1v14.91c0,3.11,1.73,4.25,4.3,4.25
		c1.28,0,2.37-0.25,3.7-0.89v3.26c-1.33,0.69-2.77,1.09-4.59,1.09C193.22,39.69,190.1,37.66,190.1,32.48z"/>
	<path d="M206.79,31.84v-0.1c0-5.48,4.44-8.35,10.91-8.35c3.26,0,5.53,0.44,7.8,1.09v-0.79c0-4.54-2.77-6.91-7.56-6.91
		c-3.01,0-5.38,0.74-7.75,1.83l-1.14-3.11c2.81-1.28,5.53-2.17,9.28-2.17c3.6,0,6.42,0.99,8.25,2.81c1.78,1.78,2.67,4.25,2.67,7.51
		v15.6h-3.75v-3.8c-1.78,2.27-4.69,4.35-9.19,4.35C211.53,39.79,206.79,37.07,206.79,31.84z M225.56,29.86v-2.37
		c-1.88-0.54-4.35-1.09-7.46-1.09c-4.74,0-7.46,2.07-7.46,5.14v0.1c0,3.21,2.96,5.09,6.42,5.09
		C221.75,36.72,225.56,33.91,225.56,29.86z"/>
	<path d="M236.4,35.74l3.21-4.94c2.86,2.07,5.88,3.16,8.35,3.16c2.17,0,3.16-0.79,3.16-1.98v-0.1c0-1.63-2.57-2.17-5.48-3.06
		c-3.7-1.09-7.9-2.81-7.9-7.95v-0.1c0-5.38,4.35-8.39,9.68-8.39c3.36,0,7.01,1.14,9.88,3.06l-2.86,5.19
		c-2.62-1.53-5.23-2.47-7.16-2.47c-1.83,0-2.77,0.79-2.77,1.83v0.1c0,1.48,2.52,2.17,5.38,3.16c3.7,1.23,8,3.01,8,7.85v0.1
		c0,5.88-4.39,8.54-10.12,8.54C244.05,39.74,239.9,38.5,236.4,35.74z"/>
	<path d="M260.97,26.16v-0.1c0-7.6,6.12-13.78,14.37-13.78c8.2,0,14.27,6.07,14.27,13.68v0.1c0,7.6-6.12,13.78-14.37,13.78
		C267.05,39.84,260.97,33.76,260.97,26.16z M282.21,26.16v-0.1c0-3.9-2.81-7.31-6.96-7.31c-4.3,0-6.86,3.31-6.86,7.21v0.1
		c0,3.9,2.81,7.31,6.96,7.31C279.64,33.37,282.21,30.06,282.21,26.16z"/>
	<path d="M295.32,19.19h-3.11v-6.17h3.11v-1.68c0-2.91,0.74-5.04,2.12-6.42s3.41-2.07,6.07-2.07c2.37,0,3.95,0.3,5.33,0.74v6.22
		c-1.09-0.4-2.12-0.64-3.41-0.64c-1.73,0-2.72,0.89-2.72,2.86v1.04h6.07v6.12h-5.98v20.05h-7.51V19.19z"/>
	<path d="M316.24,31.74V19.19h-3.16v-6.42h3.16V6.01h7.51v6.77h6.22v6.42h-6.22V30.5c0,1.73,0.74,2.57,2.42,2.57
		c1.38,0,2.62-0.35,3.7-0.94v6.02c-1.58,0.94-3.41,1.53-5.93,1.53C319.35,39.69,316.24,37.86,316.24,31.74z"/>
</g>
</svg>
