<?xml version="1.0" encoding="UTF-8" standalone="no"?><!DOCTYPE svg PUBLIC "-//W3C//DTD SVG 1.1//EN" "http://www.w3.org/Graphics/SVG/1.1/DTD/svg11.dtd"><svg width="100%" height="100%" viewBox="0 0 411 155" version="1.1" xmlns="http://www.w3.org/2000/svg" xmlns:xlink="http://www.w3.org/1999/xlink" xml:space="preserve" xmlns:serif="http://www.serif.com/" style="fill-rule:evenodd;clip-rule:evenodd;stroke-linejoin:round;stroke-miterlimit:1.41421;"><g id="Calque_4"><g><path d="M271.028,130.49l7.222,0l1.656,-10.902c0.46,-3.082 1.242,-9.568 1.472,-12.236c0.23,2.668 0.966,9.2 1.426,12.236l1.656,10.902l7.038,0l5.014,-32.062l-6.716,0l-1.288,13.57c-0.276,2.714 -0.368,7.084 -0.506,9.936c-0.23,-2.898 -0.598,-7.268 -0.966,-9.89l-1.886,-13.616l-7.176,0l-1.84,13.616c-0.368,2.622 -0.828,7.038 -1.058,9.936c-0.092,-2.852 -0.23,-7.314 -0.506,-9.982l-1.426,-13.57l-6.808,0l4.692,32.062Z" style="fill:#52e899;fill-rule:nonzero;"/><path d="M301.25,103.81c1.932,0 3.358,-1.518 3.358,-3.358c0,-1.886 -1.426,-3.358 -3.358,-3.358c-2.024,0 -3.358,1.518 -3.358,3.358c0,1.84 1.426,3.358 3.358,3.358Zm-3.312,26.68l6.532,0l0,-24.288l-6.532,0.598l0,23.69Z" style="fill:#52e899;fill-rule:nonzero;"/><path d="M315.602,126.212c-1.564,0 -2.208,-1.196 -2.208,-7.498c0,-6.854 0.644,-7.866 2.438,-7.866c0.69,0 1.242,0.322 1.656,0.782l0,13.616c-0.414,0.552 -1.058,0.966 -1.886,0.966Zm-1.978,4.876c1.886,0 3.634,-0.966 4.462,-2.346c0.046,0.782 0.138,1.426 0.23,1.748l5.704,0l0,-32.476l-6.532,-0.598l0,9.936c-0.966,-0.644 -2.3,-1.196 -3.634,-1.196c-4.554,0 -7.268,3.22 -7.268,12.742c0,8.97 2.392,12.19 7.038,12.19Z" style="fill:#52e899;fill-rule:nonzero;"/><path d="M333.956,117.886c-1.334,0 -2.162,-1.15 -2.162,-3.864c0,-2.944 0.736,-3.91 2.162,-3.91c1.472,0 2.208,0.966 2.208,3.864c0,2.898 -0.736,3.91 -2.208,3.91Zm-4.692,2.714c-1.748,0.966 -2.99,2.668 -2.99,4.692c0,2.76 1.794,4.37 5.106,4.37l3.128,0c2.162,0 3.082,0.552 3.082,2.53c0,2.116 -0.966,2.99 -3.22,2.99c-2.208,0 -3.266,-0.736 -3.266,-2.484c0,-0.69 0.138,-1.242 0.276,-1.61l-5.336,0c-0.322,0.506 -0.69,1.38 -0.69,2.622c0,3.864 2.76,5.612 9.016,5.612c5.98,0 9.2,-2.852 9.2,-8.188c0,-4.416 -2.438,-6.946 -7.222,-6.946l-3.45,0c-0.828,0 -1.426,-0.322 -1.426,-1.058c0,-0.966 0.552,-1.564 2.622,-1.61c5.52,-0.138 8.096,-2.576 8.096,-7.038c0,-2.024 -0.644,-3.312 -1.012,-3.772l2.3,0l0,-4.37c-0.184,0.092 -2.346,0.598 -3.91,0.598c-1.702,0 -2.484,-0.736 -5.566,-0.736c-5.152,0 -8.142,2.806 -8.142,7.912c0,3.542 1.426,5.52 3.404,6.486Z" style="fill:#52e899;fill-rule:nonzero;"/><path d="M350.47,116.736c0.092,-4.784 0.69,-6.072 2.3,-6.072c1.472,0 1.932,1.15 1.932,6.072l-4.232,0Zm2.944,14.306c3.036,0 5.29,-0.874 7.36,-2.53l-2.346,-4.324c-1.196,1.104 -2.668,1.932 -4.37,1.932c-2.392,0 -3.45,-1.334 -3.588,-5.336l10.304,0l0,-2.806c0,-8.372 -2.484,-11.822 -8.096,-11.822c-5.428,0 -8.602,4.462 -8.602,12.512c0,8.464 3.036,12.374 9.338,12.374Z" style="fill:#52e899;fill-rule:nonzero;"/><path d="M369.238,131.088c1.794,0 3.266,-0.276 4.416,-0.828l-0.506,-4.37c-0.322,0.184 -1.012,0.368 -1.656,0.368c-1.196,0 -1.472,-0.414 -1.472,-1.886l0,-13.156l3.128,0l0.092,-4.462l-3.22,0l0,-6.854l-6.072,0.92c-0.184,1.196 -0.23,3.496 -0.23,5.934l-1.84,0l0,4.462l1.61,0l0,14.214c0,3.91 1.886,5.658 5.75,5.658Z" style="fill:#52e899;fill-rule:nonzero;"/><path d="M381.29,131.042c5.198,0 8.004,-3.082 8.004,-8.142c0,-4.508 -1.978,-6.486 -5.888,-7.176l-0.69,-0.138c-1.748,-0.414 -2.3,-0.874 -2.3,-2.3c0,-1.38 0.736,-2.208 2.392,-2.208c1.288,0 2.806,0.506 4.324,1.426l1.794,-4.738c-1.748,-0.966 -4.002,-1.564 -6.716,-1.564c-4.922,0 -7.544,2.852 -7.544,7.59c0,4.186 1.656,6.486 5.52,7.176l0.736,0.138c2.024,0.46 2.53,0.966 2.53,2.53c0,1.564 -0.828,2.53 -2.576,2.53c-1.472,0 -3.22,-0.644 -4.83,-1.886l-1.978,4.784c1.978,1.334 4.784,1.978 7.222,1.978Z" style="fill:#52e899;fill-rule:nonzero;"/></g><path d="M70.73,84.85l15.83,2.56l-0.01,-16.55l-16.55,-2.34l0.73,16.33Z" style="fill:#fff;fill-rule:nonzero;"/><path d="M71.67,105.42l14.89,2.77l0,-14.58l-15.54,-2.63l0.65,14.44Z" style="fill:#fff;fill-rule:nonzero;"/><path d="M47.17,58.56l15.95,2.12l-1.16,-18.52l-16.7,-1.84l1.91,18.24Z" style="fill:#fff;fill-rule:nonzero;"/><path d="M25.87,55.73l15.1,2.01l-2.2,-18.14l-15.76,-1.73l2.86,17.86Z" style="fill:#fff;fill-rule:nonzero;"/><path d="M49.57,81.44l15,2.42l-1.02,-16.25l-15.66,-2.22l1.68,16.05Z" style="fill:#fff;fill-rule:nonzero;"/><path d="M99.29,59.04l-7.66,4.31l0.25,-18.86l8.03,-3.68l-0.62,18.23Z" style="fill:#fff;fill-rule:nonzero;"/><path d="M98.52,81.9l-7.21,4.98l0.22,-16.49l7.53,-4.52l-0.54,16.03Z" style="fill:#fff;fill-rule:nonzero;"/><path d="M109,53.58l-6.82,3.83l0.74,-17.99l7.1,-3.25l-1.02,17.41Z" style="fill:#fff;fill-rule:nonzero;"/><path d="M69.68,61.55l16.88,2.24l-0.01,-18.92l-17.72,-1.95l0.85,18.63Z" style="fill:#fff;fill-rule:nonzero;"/><path d="M79.36,34.9l17.16,1.7l-8.23,3.5l-17.77,-1.84l8.84,-3.36Z" style="fill:#fff;fill-rule:nonzero;"/><path d="M90.51,30.66l16.37,1.52l-7.27,3.1l-16.93,-1.64l7.83,-2.98Z" style="fill:#fff;fill-rule:nonzero;"/><path d="M100.45,26.89l15.65,1.36l-6.48,2.76l-16.15,-1.47l6.98,-2.65Z" style="fill:#fff;fill-rule:nonzero;"/><path d="M56.47,32.63l16.22,1.61l-9.07,3.29l-16.74,-1.74l9.59,-3.16Z" style="fill:#fff;fill-rule:nonzero;"/><path d="M68.55,28.63l15.52,1.44l-8.04,2.92l-16.01,-1.56l8.53,-2.8Z" style="fill:#fff;fill-rule:nonzero;"/><path d="M34.82,30.48l15.34,1.52l-9.79,3.11l-15.81,-1.64l10.26,-2.99Z" style="fill:#fff;fill-rule:nonzero;"/><path d="M122.15,66.65c0,-15.65 4.85,-21.65 13.62,-21.65c8.33,0 13.56,6.57 13.56,20.6c0,15.61 -4.81,21.72 -13.56,21.72c-8.22,0.05 -13.62,-6.64 -13.62,-20.67Zm17.85,-0.59c0,-11.68 -1.23,-14.5 -4.34,-14.5c-2.88,0 -4.17,3.35 -4.17,14.5c0,12.09 1.23,14.79 4.34,14.79c3.11,0 4.17,-2.29 4.17,-14.79Z" style="fill:#fff;fill-rule:nonzero;"/><path d="M151.73,56.55l7.22,-0.88c0.273,0.814 0.431,1.662 0.47,2.52c1.398,-1.627 3.435,-2.569 5.58,-2.58c6,0 9,4.11 9,15.55c0,12.09 -3.46,16.2 -10.1,16.2c-1.374,0.046 -2.722,-0.389 -3.81,-1.23l0,10.75l-8.33,1l-0.03,-41.33Zm13.56,15.08c0,-8 -0.88,-9.63 -2.88,-9.63c-0.934,0.013 -1.807,0.47 -2.35,1.23l0,17.45c0.532,0.606 1.304,0.95 2.11,0.94c2.24,0 3.12,-1.3 3.12,-9.98l0,-0.01Z" style="fill:#fff;fill-rule:nonzero;"/><path d="M175.5,71.58c0,-10.27 4.05,-16 11,-16c7.16,0 10.33,4.4 10.33,15.08l0,3.58l-13.17,0c0.18,5.11 1.53,6.81 4.58,6.81c2.106,-0.083 4.103,-0.967 5.58,-2.47l3,5.52c-2.635,2.177 -5.973,3.325 -9.39,3.23c-8.05,0.04 -11.93,-4.95 -11.93,-15.75Zm13.56,-2.47c0,-6.28 -0.59,-7.75 -2.47,-7.75c-2.05,0 -2.82,1.64 -2.93,7.75l5.4,0Z" style="fill:#fff;fill-rule:nonzero;"/><path d="M199.21,56.55l7.22,-0.88c0.308,0.969 0.447,1.984 0.41,3c1.588,-1.991 4.024,-3.122 6.57,-3.05c4.4,0 7.16,2.41 7.16,7.51l0,23.53l-8.33,0l0,-21.66c0,-2.17 -0.53,-2.88 -2.05,-2.88c-1.009,0.038 -1.962,0.481 -2.64,1.23l0,23.3l-8.33,0l-0.01,-30.1Z" style="fill:#fff;fill-rule:nonzero;"/><path d="M223.92,45.75l10.74,0c10.33,0 14.73,6.16 14.73,19.9c0,14 -4.7,21 -14.38,21l-11.09,0l0,-40.9Zm10.51,34.25c4.46,0 5.58,-2.47 5.58,-14.5c0,-10.74 -1.06,-13.21 -5.75,-13.21l-1.53,0l0,27.71l1.7,0Z" style="fill:#fff;fill-rule:nonzero;"/><path d="M263.6,84.61c-1.051,1.863 -3.086,2.962 -5.22,2.82c-4.52,0 -7.92,-2.93 -7.92,-8.92c0,-7.16 3.7,-9.57 10.09,-9.57c0.827,-0.002 1.652,0.058 2.47,0.18l0,-3.94c0,-2.23 -1.23,-2.93 -3.05,-2.93c-2.156,0.047 -4.247,0.744 -6,2l-2.7,-5.81c3.077,-1.866 6.612,-2.843 10.21,-2.82c6.57,0 9.74,2.7 9.74,8.33l0,16.37c-0.09,1.821 0.275,3.635 1.06,5.28l-7.16,1.94c-0.887,-0.726 -1.437,-1.787 -1.52,-2.93Zm-0.6,-3.93l0,-7.4c-0.446,-0.08 -0.897,-0.12 -1.35,-0.12c-2.47,0 -3.58,1 -3.58,4.81c0,3.41 0.88,4.4 2.58,4.4c1.06,-0.006 2.006,-0.687 2.35,-1.69Z" style="fill:#fff;fill-rule:nonzero;"/><path d="M274.92,80.21l0,-18.14l-2.05,0l0,-5.69l2.35,0c-0.056,-2.527 0.041,-5.055 0.29,-7.57l7.75,-1.17l0,8.75l4.11,0l-0.12,5.69l-4,0l0,16.78c0,1.88 0.35,2.41 1.88,2.41c0.73,0.002 1.45,-0.158 2.11,-0.47l0.65,5.58c-1.774,0.768 -3.698,1.13 -5.63,1.06c-4.93,-0.01 -7.34,-2.24 -7.34,-7.23Z" style="fill:#fff;fill-rule:nonzero;"/><path d="M302.33,84.61c-1.051,1.863 -3.086,2.962 -5.22,2.82c-4.52,0 -7.92,-2.93 -7.92,-8.92c0,-7.16 3.7,-9.57 10.09,-9.57c0.827,-0.002 1.652,0.058 2.47,0.18l0,-3.94c0,-2.23 -1.23,-2.93 -3.05,-2.93c-2.156,0.047 -4.247,0.744 -6,2l-2.7,-5.82c3.077,-1.866 6.612,-2.843 10.21,-2.82c6.57,0 9.74,2.7 9.74,8.33l0,16.38c-0.094,1.823 0.266,3.641 1.05,5.29l-7.16,1.94c-0.885,-0.731 -1.432,-1.795 -1.51,-2.94Zm-0.59,-3.93l0,-7.4c-0.446,-0.08 -0.897,-0.12 -1.35,-0.12c-2.47,0 -3.58,1 -3.58,4.81c0,3.41 0.88,4.4 2.58,4.4c1.06,-0.006 2.006,-0.687 2.35,-1.69Z" style="fill:#fff;fill-rule:nonzero;"/><path d="M311.37,84.37l2.82,-6.51c1.999,1.6 4.444,2.543 7,2.7c3.11,0 4.87,-1.88 4.87,-5.52c0,-3 -1.11,-4.34 -4.28,-5.28l-1.06,-0.29c-5.17,-1.53 -8.28,-4.23 -8.28,-12c0,-7.77 4.21,-12.47 11.9,-12.47c3.571,-0.119 7.084,0.935 10,3l-3.34,6.44c-1.615,-1.559 -3.756,-2.458 -6,-2.52c-2.7,0 -4.05,1.88 -4.05,4.64c0,2.76 0.76,4.11 3.7,5l1.06,0.29c6.16,1.76 9.1,5 9.1,11.8c0,8.75 -4.29,13.68 -12.74,13.68c-4.42,0.04 -8.65,-1.33 -10.7,-2.96Z" style="fill:#fff;fill-rule:nonzero;"/><path d="M336.08,71.64c0,-10.74 4.29,-16 11.56,-16c7.27,0 11.36,4.96 11.36,15.29c0,11.33 -3.93,16.43 -11.5,16.43c-7.37,0.01 -11.42,-5.04 -11.42,-15.72Zm14.26,-0.64c0,-8 -0.76,-9.63 -2.76,-9.63c-2,0 -2.82,2.11 -2.82,10c0,8.28 0.76,10.15 2.76,10.15c2,0 2.82,-2.19 2.82,-10.52Z" style="fill:#fff;fill-rule:nonzero;"/><path d="M376,80.21l0,-18.14l-5.63,0l0,24.59l-8.33,0l0,-24.59l-2.04,0l0,-5.69l2,0l0,-4.82c0,-5.58 2.29,-7.92 7.75,-7.92c1.85,-0.042 3.688,0.298 5.4,1l-1.17,5.75c-0.512,-0.312 -1.101,-0.475 -1.7,-0.47c-1.35,0 -2,0.76 -2,2.47l0,4l6.1,0c-0.055,-2.527 0.042,-5.055 0.29,-7.57l7.75,-1.17l0,8.75l4.11,0l-0.12,5.69l-4,0l0,16.77c0,1.88 0.35,2.41 1.88,2.41c0.73,0.002 1.45,-0.158 2.11,-0.47l0.65,5.58c-1.774,0.768 -3.698,1.13 -5.63,1.06c-4.97,-0.01 -7.42,-2.24 -7.42,-7.23Z" style="fill:#fff;fill-rule:nonzero;"/><path d="M251.3,130.29l-3.38,0c-2.536,-0.005 -4.62,-2.094 -4.62,-4.63l0,-22c0,-2.536 2.084,-4.625 4.62,-4.63l3.38,0c1.218,0 2.22,1.002 2.22,2.22c0,1.218 -1.002,2.22 -2.22,2.22l-3.38,0c-0.104,0 -0.19,0.086 -0.19,0.19l0,22c0,0.104 0.086,0.19 0.19,0.19l3.38,0c1.218,0 2.22,1.002 2.22,2.22c0,1.218 -1.002,2.22 -2.22,2.22Z" style="fill:#52e899;fill-rule:nonzero;"/><path d="M199.49,130.29l-3.38,0c-1.218,0 -2.22,-1.002 -2.22,-2.22c0,-1.218 1.002,-2.22 2.22,-2.22l3.38,0c0.104,0 0.19,-0.086 0.19,-0.19l0,-22c0,-0.104 -0.086,-0.19 -0.19,-0.19l-3.38,0c-1.218,0 -2.22,-1.002 -2.22,-2.22c0,-1.218 1.002,-2.22 2.22,-2.22l3.38,0c2.54,0 4.63,2.09 4.63,4.63l0,22c0,2.54 -2.09,4.63 -4.63,4.63Z" style="fill:#52e899;fill-rule:nonzero;"/><path d="M236.54,99l-25.82,0c-1.552,0 -2.83,1.278 -2.83,2.83l0,25.77c0,1.552 1.278,2.83 2.83,2.83l25.82,0c1.552,0 2.83,-1.278 2.83,-2.83l0,-25.82c-0.027,-1.534 -1.296,-2.78 -2.83,-2.78Zm-18.39,18.84c0.476,0.533 0.476,1.347 0,1.88c-0.23,0.259 -0.559,0.407 -0.905,0.407c-0.346,0 -0.675,-0.148 -0.905,-0.407l-4.56,-5l4.56,-5c0.23,-0.259 0.559,-0.407 0.905,-0.407c0.346,0 0.675,0.148 0.905,0.407c0.476,0.533 0.476,1.347 0,1.88l-2.84,3.1l2.84,3.14Zm9.29,-7l-4.94,9.88c-0.243,0.472 -0.731,0.77 -1.263,0.77c-0.779,0 -1.42,-0.641 -1.42,-1.42c0,-0.215 0.049,-0.427 0.143,-0.62l4.94,-9.88c0.237,-0.488 0.734,-0.8 1.277,-0.8c0.779,0 1.42,0.641 1.42,1.42c0,0.226 -0.054,0.449 -0.157,0.65Zm3.63,8.84c-0.23,0.259 -0.559,0.407 -0.905,0.407c-0.346,0 -0.675,-0.148 -0.905,-0.407c-0.476,-0.533 -0.476,-1.347 0,-1.88l2.84,-3.1l-2.84,-3.1c-0.476,-0.533 -0.476,-1.347 0,-1.88c0.23,-0.259 0.559,-0.407 0.905,-0.407c0.346,0 0.675,0.148 0.905,0.407l4.56,5l-4.56,4.96Z" style="fill:#52e899;fill-rule:nonzero;"/></g></svg>