<svg width="139" height="139" xmlns="http://www.w3.org/2000/svg" viewBox="0 0 139 139">
 <g>
  <title>Layer 1</title>
  <g id="svg_1" fill="#fff">
   <polygon points="71.09400177001953,96.34199523925781 94.66799926757812,100.14900207519531 94.66000366210938,75.50399780273438 69.99199676513672,72.01200103759766 " id="svg_2"/>
   <polygon points="72.48799896240234,126.98500061035156 94.67399597167969,131.11000061035156 94.66799926757812,109.38700103759766 71.51199340820312,105.48199462890625 " id="svg_3"/>
   <polygon points="35.992000579833984,57.185001373291016 59.74799728393555,60.343997955322266 58.01900100708008,32.75 33.145999908447266,30.012001037597656 " id="svg_4"/>
   <polygon points="4.257999420166016,52.96900177001953 26.748001098632812,55.96099853515625 23.479999542236328,28.94300079345703 0,26.354000091552734 " id="svg_5"/>
   <polygon points="39.5620002746582,91.26299285888672 61.91599655151367,94.86800384521484 60.39999771118164,70.66099548339844 37.060001373291016,67.36600494384766 " id="svg_6"/>
   <polygon points="113.63699340820312,57.891998291015625 102.21699523925781,64.30700302124023 102.59800720214844,36.22600173950195 114.54899597167969,30.730998992919922 " id="svg_7"/>
   <polygon points="112.48799896240234,91.94800567626953 101.7459945678711,99.36400604248047 102.07600402832031,74.79600524902344 113.29500579833984,68.06399536132812 " id="svg_8"/>
   <polygon points="128.093994140625,49.76599884033203 117.93500518798828,55.47100067138672 119.03900146484375,28.673999786376953 129.6129913330078,23.825000762939453 " id="svg_9"/>
   <polygon points="69.52499389648438,61.6359977722168 94.66400146484375,64.97900009155273 94.65199279785156,36.7869987487793 68.26699829101562,33.87699890136719 " id="svg_10"/>
   <polygon points="83.93900299072266,21.934999465942383 109.50399780273438,24.46500015258789 97.24400329589844,29.689998626708984 70.77900695800781,26.93600082397461 " id="svg_11"/>
   <polygon points="100.54899597167969,15.618000030517578 124.94499206542969,17.880001068115234 114.10900115966797,22.506000518798828 88.88899230957031,20.052000045776367 " id="svg_12"/>
   <polygon points="115.36099243164062,10 138.66400146484375,12.030000686645508 129.02499389648438,16.14299964904785 104.95500183105469,13.948999404907227 " id="svg_13"/>
   <polygon points="49.847999572753906,18.55500030517578 74,20.94700050354004 60.50200271606445,25.86199951171875 35.553001403808594,23.260000228881836 " id="svg_14"/>
   <polygon points="67.84199523925781,12.59000015258789 90.9590072631836,14.735000610351562 78.98399353027344,19.0939998626709 55.13699722290039,16.770000457763672 " id="svg_15"/>
   <polygon points="17.59000015258789,15.356000900268555 40.452999114990234,17.623001098632812 25.86499786376953,22.253999710083008 2.314000129699707,19.798999786376953 " id="svg_16"/>
  </g>
 </g>
</svg>