<?xml version="1.0" encoding="utf-8"?>
<!-- Generator: Adobe Illustrator 19.0.0, SVG Export Plug-In . SVG Version: 6.00 Build 0)  -->
<!DOCTYPE svg PUBLIC "-//W3C//DTD SVG 1.1//EN" "http://www.w3.org/Graphics/SVG/1.1/DTD/svg11.dtd">
<svg version="1.1" id="Calque_1" xmlns="http://www.w3.org/2000/svg" xmlns:xlink="http://www.w3.org/1999/xlink" x="0px" y="0px"
	 viewBox="0 0 112.8 25" enable-background="new 0 0 112.8 25" xml:space="preserve">
<g id="XMLID_35_">
	<g id="XMLID_70_">
		<polygon id="XMLID_33_" fill="#206796" points="14.6,17.8 19.5,18.6 19.5,13.5 14.4,12.8 		"/>
		<polygon id="XMLID_32_" fill="#206796" points="14.9,24.1 19.5,24.9 19.5,20.5 14.7,19.6 		"/>
		<polygon id="XMLID_31_" fill="#206796" points="7.4,9.7 12.3,10.4 11.9,4.7 6.8,4.1 		"/>
		<polygon id="XMLID_30_" fill="#206796" points="0.9,8.8 5.5,9.5 4.8,3.9 0,3.4 		"/>
		<polygon id="XMLID_29_" fill="#206796" points="8.1,16.7 12.7,17.5 12.4,12.5 7.6,11.8 		"/>
		<polygon id="XMLID_28_" fill="#206796" points="23.4,9.9 21,11.2 21.1,5.4 23.6,4.3 		"/>
		<polygon id="XMLID_27_" fill="#206796" points="23.2,16.9 20.9,18.4 21,13.3 23.3,11.9 		"/>
		<polygon id="XMLID_26_" fill="#206796" points="26.4,8.2 24.3,9.4 24.5,3.8 26.7,2.8 		"/>
		<polygon id="XMLID_25_" fill="#206796" points="14.3,10.6 19.5,11.3 19.5,5.5 14,4.9 		"/>
		<polygon id="XMLID_24_" fill="#206796" points="17.3,2.5 22.5,3 20,4.1 14.6,3.5 		"/>
		<polygon id="XMLID_23_" fill="#206796" points="20.7,1.2 25.7,1.6 23.5,2.6 18.3,2.1 		"/>
		<polygon id="XMLID_22_" fill="#206796" points="23.7,0 28.5,0.4 26.6,1.3 21.6,0.8 		"/>
		<polygon id="XMLID_21_" fill="#206796" points="10.3,1.8 15.2,2.3 12.5,3.3 7.3,2.7 		"/>
		<polygon id="XMLID_20_" fill="#206796" points="14,0.5 18.7,1 16.3,1.9 11.3,1.4 		"/>
		<polygon id="XMLID_19_" fill="#206796" points="3.6,1.1 8.3,1.6 5.3,2.5 0.5,2 		"/>
	</g>
	<g id="XMLID_36_">
		<path id="XMLID_67_" fill="#206796" d="M30.4,12.2c0-4.8,1.5-6.6,4.2-6.6c2.6,0,4.2,2,4.2,6.3c0,4.8-1.5,6.7-4.2,6.7
			C32,18.5,30.4,16.5,30.4,12.2z M35.9,12c0-3.6-0.4-4.4-1.3-4.4c-0.9,0-1.3,1-1.3,4.4c0,3.7,0.4,4.5,1.3,4.5
			C35.5,16.5,35.9,15.8,35.9,12z"/>
		<path id="XMLID_64_" fill="#206796" d="M39.5,9.1l2.2-0.3c0.1,0.2,0.1,0.5,0.1,0.8c0.3-0.4,0.9-0.8,1.7-0.8c1.8,0,2.8,1.3,2.8,4.8
			c0,3.7-1.1,5-3.1,5c-0.5,0-0.9-0.2-1.2-0.4v3.3l-2.6,0.3V9.1z M43.6,13.7c0-2.5-0.3-3-0.9-3c-0.3,0-0.6,0.2-0.7,0.4v5.3
			c0.1,0.2,0.4,0.3,0.6,0.3C43.3,16.8,43.6,16.4,43.6,13.7z"/>
		<path id="XMLID_61_" fill="#206796" d="M46.7,13.7c0-3.1,1.2-4.9,3.4-4.9c2.2,0,3.2,1.3,3.2,4.6v1.1h-4c0.1,1.6,0.5,2.1,1.4,2.1
			c0.7,0,1.2-0.3,1.7-0.8l0.9,1.7c-0.8,0.6-1.7,1-2.9,1C47.9,18.5,46.7,17,46.7,13.7z M50.9,12.9c0-1.9-0.2-2.4-0.8-2.4
			c-0.6,0-0.9,0.5-0.9,2.4H50.9z"/>
		<path id="XMLID_59_" fill="#206796" d="M54,9.1l2.2-0.3c0.1,0.2,0.1,0.5,0.1,0.9c0.4-0.5,1-0.9,2-0.9c1.3,0,2.2,0.7,2.2,2.3v7.2
			H58v-6.6c0-0.7-0.2-0.9-0.6-0.9c-0.3,0-0.6,0.2-0.8,0.4v7.1H54V9.1z"/>
		<path id="XMLID_56_" fill="#206796" d="M61.6,5.8h3.3c3.2,0,4.5,1.9,4.5,6.1c0,4.3-1.4,6.4-4.4,6.4h-3.4V5.8z M64.8,16.3
			c1.4,0,1.7-0.8,1.7-4.4c0-3.3-0.3-4-1.8-4h-0.5v8.5H64.8z"/>
		<path id="XMLID_53_" fill="#206796" d="M73.8,17.7c-0.3,0.5-0.8,0.9-1.6,0.9c-1.4,0-2.4-0.9-2.4-2.7c0-2.2,1.1-2.9,3.1-2.9
			c0.3,0,0.7,0,0.8,0.1v-1.2c0-0.7-0.4-0.9-0.9-0.9c-0.7,0-1.4,0.3-1.8,0.6L70,9.7c0.8-0.5,1.8-0.9,3.1-0.9c2,0,3,0.8,3,2.6v5
			c0,0.8,0.1,1.2,0.3,1.6l-2.2,0.6C74,18.4,73.8,18.1,73.8,17.7z M73.6,16.5v-2.3c-0.1,0-0.3,0-0.4,0c-0.8,0-1.1,0.3-1.1,1.5
			c0,1,0.3,1.3,0.8,1.3C73.3,17,73.5,16.8,73.6,16.5z"/>
		<path id="XMLID_51_" fill="#206796" d="M77.2,16.3v-5.6h-0.6V9h0.7c0-1,0-1.9,0.1-2.3l2.4-0.4V9H81l0,1.7h-1.2v5.1
			c0,0.6,0.1,0.7,0.6,0.7c0.3,0,0.5-0.1,0.6-0.1l0.2,1.7c-0.4,0.2-1,0.3-1.7,0.3C78,18.6,77.2,17.9,77.2,16.3z"/>
		<path id="XMLID_48_" fill="#206796" d="M85.6,17.7c-0.3,0.5-0.8,0.9-1.6,0.9c-1.4,0-2.4-0.9-2.4-2.7c0-2.2,1.1-2.9,3.1-2.9
			c0.3,0,0.7,0,0.8,0.1v-1.2c0-0.7-0.4-0.9-0.9-0.9c-0.7,0-1.4,0.3-1.8,0.6l-0.8-1.8c0.8-0.5,1.8-0.9,3.1-0.9c2,0,3,0.8,3,2.6v5
			c0,0.8,0.1,1.2,0.3,1.6l-2.2,0.6C85.9,18.4,85.7,18.1,85.6,17.7z M85.5,16.5v-2.3c-0.1,0-0.3,0-0.4,0c-0.8,0-1.1,0.3-1.1,1.5
			c0,1,0.3,1.3,0.8,1.3C85.1,17,85.3,16.8,85.5,16.5z"/>
		<path id="XMLID_45_" fill="#206796" d="M88.4,17.6l0.9-2c0.4,0.3,1.2,0.8,2.2,0.8c1,0,1.5-0.6,1.5-1.7c0-0.9-0.3-1.3-1.3-1.6
			l-0.3-0.1c-1.6-0.5-2.5-1.3-2.5-3.7c0-2.4,1.3-3.8,3.6-3.8c1.2,0,2.2,0.3,3.1,0.9l-1,2c-0.5-0.4-1.1-0.8-1.9-0.8
			c-0.8,0-1.2,0.6-1.2,1.4c0,0.8,0.2,1.3,1.1,1.5l0.3,0.1c1.9,0.5,2.8,1.5,2.8,3.6c0,2.7-1.3,4.2-3.9,4.2
			C90.3,18.5,89,18.1,88.4,17.6z"/>
		<path id="XMLID_39_" fill="#206796" d="M96,13.7c0-3.3,1.3-4.9,3.5-4.9s3.5,1.5,3.5,4.7c0,3.5-1.2,5-3.5,5
			C97.2,18.5,96,17,96,13.7z M100.3,13.5c0-2.5-0.2-3-0.8-3c-0.6,0-0.9,0.6-0.9,3.1c0,2.5,0.2,3.1,0.8,3.1
			C100.1,16.8,100.3,16.1,100.3,13.5z"/>
		<path id="XMLID_37_" fill="#206796" d="M108.2,16.3v-5.6h-1.7v7.5h-2.6v-7.5h-0.6V9h0.6V7.6c0-1.7,0.7-2.4,2.4-2.4
			c0.7,0,1.2,0.1,1.7,0.3l-0.4,1.8c-0.1-0.1-0.3-0.1-0.5-0.1c-0.4,0-0.6,0.2-0.6,0.8V9h1.9c0-1,0-1.9,0.1-2.3l2.4-0.4V9h1.3l0,1.7
			h-1.2v5.1c0,0.6,0.1,0.7,0.6,0.7c0.3,0,0.5-0.1,0.6-0.1l0.2,1.7c-0.4,0.2-1,0.3-1.7,0.3C109,18.6,108.2,17.9,108.2,16.3z"/>
	</g>
</g>
</svg>
