<svg xmlns="http://www.w3.org/2000/svg" viewBox="0 0 411 155"><defs><style>.cls-1{fill:#52e899;}.cls-2{fill:#fff;}</style></defs><title>ODS</title><g id="Calque_4" data-name="Calque 4"><path class="cls-1" d="M282.29,98.7h6.79l1.42,13.54c.28,2.66.41,7.11.5,10,.23-2.89.69-7.3,1.06-9.91L293.9,98.7h7.16l1.88,13.59c.37,2.62.73,7,1,9.87.14-2.85.23-7.21.5-9.91L305.7,98.7h6.7l-5,32h-7l-1.65-10.88c-.46-3-1.19-9.55-1.42-12.21-.23,2.66-1,9.13-1.47,12.21l-1.65,10.88H287Z"/><path class="cls-1" d="M313.77,100.72a3.35,3.35,0,0,1,6.7,0,3.35,3.35,0,0,1-6.7,0Zm0,6.33,6.52-.6v24.23h-6.52Z"/><path class="cls-1" d="M322.44,119.12c0-9.5,2.71-12.71,7.25-12.71a6.83,6.83,0,0,1,3.63,1.19V97.69l6.52.6v32.4h-5.69a9.45,9.45,0,0,1-.23-1.74,5.24,5.24,0,0,1-4.45,2.34C324.83,131.28,322.44,128.07,322.44,119.12Zm10.88,6.33V111.87a2.19,2.19,0,0,0-1.65-.78c-1.79,0-2.43,1-2.43,7.85,0,6.29.64,7.48,2.2,7.48A2.32,2.32,0,0,0,333.32,125.46Z"/><path class="cls-1" d="M341.67,114.35c0-5.09,3-7.89,8.12-7.89,3.08,0,3.86.73,5.55.73a16.3,16.3,0,0,0,3.9-.6V111H357a6.34,6.34,0,0,1,1,3.76c0,4.45-2.57,6.88-8.08,7-2.07,0-2.62.64-2.62,1.61,0,.73.6,1.06,1.42,1.06h3.44c4.77,0,7.21,2.52,7.21,6.93,0,5.32-3.21,8.17-9.18,8.17-6.24,0-9-1.74-9-5.6a4.85,4.85,0,0,1,.69-2.62h5.32a4.61,4.61,0,0,0-.28,1.61c0,1.74,1.06,2.48,3.26,2.48s3.21-.87,3.21-3-.92-2.52-3.08-2.52h-3.12c-3.3,0-5.09-1.61-5.09-4.36a5.42,5.42,0,0,1,3-4.68C343.1,119.86,341.67,117.88,341.67,114.35Zm10.28-.14c0-2.89-.73-3.86-2.2-3.86s-2.16,1-2.16,3.9c0,2.71.83,3.86,2.16,3.86S352,117.1,352,114.21Z"/><path class="cls-1" d="M359.85,118.89c0-8,3.17-12.48,8.58-12.48,5.6,0,8.08,3.44,8.08,11.8V121H366.23c.14,4,1.19,5.32,3.58,5.32a6.48,6.48,0,0,0,4.36-1.93l2.34,4.31a11.05,11.05,0,0,1-7.34,2.52C362.87,131.24,359.85,127.34,359.85,118.89Zm10.6-1.93c0-4.91-.46-6.06-1.93-6.06s-2.2,1.29-2.29,6.06Z"/><path class="cls-1" d="M379.21,125.64V111.46h-1.61V107h1.84a49.38,49.38,0,0,1,.23-5.92l6.06-.92V107h3.21l-.09,4.45h-3.12v13.13c0,1.47.28,1.88,1.47,1.88a3.83,3.83,0,0,0,1.65-.37l.5,4.36a10.2,10.2,0,0,1-4.41.83C381.09,131.28,379.21,129.54,379.21,125.64Z"/><polygon class="cls-2" points="70.73 84.85 86.56 87.41 86.55 70.86 70 68.52 70.73 84.85"/><polygon class="cls-2" points="71.67 105.42 86.56 108.19 86.56 93.61 71.02 90.98 71.67 105.42"/><polygon class="cls-2" points="47.17 58.56 63.12 60.68 61.96 42.16 45.26 40.32 47.17 58.56"/><polygon class="cls-2" points="25.87 55.73 40.97 57.74 38.77 39.6 23.01 37.87 25.87 55.73"/><polygon class="cls-2" points="49.57 81.44 64.57 83.86 63.55 67.61 47.89 65.39 49.57 81.44"/><polygon class="cls-2" points="99.29 59.04 91.63 63.35 91.88 44.49 99.91 40.81 99.29 59.04"/><polygon class="cls-2" points="98.52 81.9 91.31 86.88 91.53 70.39 99.06 65.87 98.52 81.9"/><polygon class="cls-2" points="109 53.58 102.18 57.41 102.92 39.42 110.02 36.17 109 53.58"/><polygon class="cls-2" points="69.68 61.55 86.56 63.79 86.55 44.87 68.83 42.92 69.68 61.55"/><polygon class="cls-2" points="79.36 34.9 96.52 36.6 88.29 40.1 70.52 38.26 79.36 34.9"/><polygon class="cls-2" points="90.51 30.66 106.88 32.18 99.61 35.28 82.68 33.64 90.51 30.66"/><polygon class="cls-2" points="100.45 26.89 116.1 28.25 109.62 31.01 93.47 29.54 100.45 26.89"/><polygon class="cls-2" points="56.47 32.63 72.69 34.24 63.62 37.53 46.88 35.79 56.47 32.63"/><polygon class="cls-2" points="68.55 28.63 84.07 30.07 76.03 32.99 60.02 31.43 68.55 28.63"/><polygon class="cls-2" points="34.82 30.48 50.16 32 40.37 35.11 24.56 33.47 34.82 30.48"/><path class="cls-2" d="M122.15,66.65C122.15,51,127,45,135.77,45c8.33,0,13.56,6.57,13.56,20.6,0,15.61-4.81,21.72-13.56,21.72C127.55,87.37,122.15,80.68,122.15,66.65ZM140,66.06c0-11.68-1.23-14.5-4.34-14.5-2.88,0-4.17,3.35-4.17,14.5,0,12.09,1.23,14.79,4.34,14.79S140,78.56,140,66.06Z"/><path class="cls-2" d="M151.73,56.55l7.22-.88a9.22,9.22,0,0,1,.47,2.52A7.41,7.41,0,0,1,165,55.61c6,0,9,4.11,9,15.55,0,12.09-3.46,16.2-10.1,16.2a5.91,5.91,0,0,1-3.81-1.23V96.88l-8.33,1Zm13.56,15.08c0-8-.88-9.63-2.88-9.63a2.94,2.94,0,0,0-2.35,1.23V80.68a2.76,2.76,0,0,0,2.11.94C164.41,81.62,165.29,80.32,165.29,71.64Z"/><path class="cls-2" d="M175.5,71.58c0-10.27,4.05-16,11-16,7.16,0,10.33,4.4,10.33,15.08v3.58H183.66c.18,5.11,1.53,6.81,4.58,6.81a8.28,8.28,0,0,0,5.58-2.47l3,5.52a14.13,14.13,0,0,1-9.39,3.23C179.38,87.37,175.5,82.38,175.5,71.58Zm13.56-2.47c0-6.28-.59-7.75-2.47-7.75-2.05,0-2.82,1.64-2.93,7.75Z"/><path class="cls-2" d="M199.21,56.55l7.22-.88a8.83,8.83,0,0,1,.41,3,8.11,8.11,0,0,1,6.57-3.05c4.4,0,7.16,2.41,7.16,7.51V86.66h-8.33V65c0-2.17-.53-2.88-2.05-2.88a3.75,3.75,0,0,0-2.64,1.23v23.3h-8.33Z"/><path class="cls-2" d="M223.92,45.75h10.74c10.33,0,14.73,6.16,14.73,19.9,0,14-4.7,21-14.38,21H223.92ZM234.43,80c4.46,0,5.58-2.47,5.58-14.5,0-10.74-1.06-13.21-5.75-13.21h-1.53V80Z"/><path class="cls-2" d="M263.6,84.61a5.57,5.57,0,0,1-5.22,2.82c-4.52,0-7.92-2.93-7.92-8.92,0-7.16,3.7-9.57,10.09-9.57a16.39,16.39,0,0,1,2.47.18V65.18c0-2.23-1.23-2.93-3.05-2.93a10.7,10.7,0,0,0-6,2l-2.7-5.81a19.45,19.45,0,0,1,10.21-2.82c6.57,0,9.74,2.7,9.74,8.33V80.32a11,11,0,0,0,1.06,5.28l-7.16,1.94A4.18,4.18,0,0,1,263.6,84.61ZM263,80.68V73.28a7.68,7.68,0,0,0-1.35-.12c-2.47,0-3.58,1-3.58,4.81,0,3.41.88,4.4,2.58,4.4A2.5,2.5,0,0,0,263,80.68Z"/><path class="cls-2" d="M274.92,80.21V62.07h-2.05V56.38h2.35a62.89,62.89,0,0,1,.29-7.57l7.75-1.17v8.75h4.11l-.12,5.69h-4V78.86c0,1.88.35,2.41,1.88,2.41a4.9,4.9,0,0,0,2.11-.47l.65,5.58a13,13,0,0,1-5.63,1.06C277.33,87.43,274.92,85.2,274.92,80.21Z"/><path class="cls-2" d="M302.33,84.61a5.57,5.57,0,0,1-5.22,2.82c-4.52,0-7.92-2.93-7.92-8.92,0-7.16,3.7-9.57,10.09-9.57a16.39,16.39,0,0,1,2.47.18V65.18c0-2.23-1.23-2.93-3.05-2.93a10.7,10.7,0,0,0-6,2L290,58.43a19.45,19.45,0,0,1,10.21-2.82c6.57,0,9.74,2.7,9.74,8.33V80.32A11,11,0,0,0,311,85.61l-7.16,1.94A4.18,4.18,0,0,1,302.33,84.61Zm-.59-3.93V73.28a7.67,7.67,0,0,0-1.35-.12c-2.47,0-3.58,1-3.58,4.81,0,3.41.88,4.4,2.58,4.4A2.5,2.5,0,0,0,301.74,80.68Z"/><path class="cls-2" d="M311.37,84.37l2.82-6.51a12.42,12.42,0,0,0,7,2.7c3.11,0,4.87-1.88,4.87-5.52,0-3-1.11-4.34-4.28-5.28l-1.06-.29c-5.17-1.53-8.28-4.23-8.28-12S316.65,45,324.34,45a16.36,16.36,0,0,1,10,3L331,54.44a9,9,0,0,0-6-2.52c-2.7,0-4.05,1.88-4.05,4.64s.76,4.11,3.7,5l1.06.29c6.16,1.76,9.1,5,9.1,11.8,0,8.75-4.29,13.68-12.74,13.68C317.65,87.37,313.42,86,311.37,84.37Z"/><path class="cls-2" d="M336.08,71.64c0-10.74,4.29-16,11.56-16S359,60.6,359,70.93c0,11.33-3.93,16.43-11.5,16.43C340.13,87.37,336.08,82.32,336.08,71.64ZM350.34,71c0-8-.76-9.63-2.76-9.63s-2.82,2.11-2.82,10c0,8.28.76,10.15,2.76,10.15S350.34,79.33,350.34,71Z"/><path class="cls-2" d="M376,80.21V62.07h-5.63V86.66h-8.33V62.07H360V56.38h2V51.56c0-5.58,2.29-7.92,7.75-7.92a13.42,13.42,0,0,1,5.4,1l-1.17,5.75a3.21,3.21,0,0,0-1.7-.47c-1.35,0-2,.76-2,2.47v4h6.1a63.13,63.13,0,0,1,.29-7.57l7.75-1.17v8.75h4.11l-.12,5.69h-4V78.86c0,1.88.35,2.41,1.88,2.41a4.9,4.9,0,0,0,2.11-.47l.65,5.58a13,13,0,0,1-5.63,1.06C378.45,87.43,376,85.2,376,80.21Z"/><path class="cls-1" d="M267.3,130.29h-3.38a4.63,4.63,0,0,1-4.62-4.63v-22a4.63,4.63,0,0,1,4.62-4.63h3.38a2.22,2.22,0,0,1,0,4.44h-3.38a.19.19,0,0,0-.19.19v22a.19.19,0,0,0,.19.19h3.38a2.22,2.22,0,0,1,0,4.44Z"/><path class="cls-1" d="M215.49,130.29h-3.38a2.22,2.22,0,0,1,0-4.44h3.38a.19.19,0,0,0,.19-.19v-22a.19.19,0,0,0-.19-.19h-3.38a2.22,2.22,0,0,1,0-4.44h3.38a4.63,4.63,0,0,1,4.63,4.63v22A4.63,4.63,0,0,1,215.49,130.29Z"/><path class="cls-1" d="M252.54,99H226.72a2.83,2.83,0,0,0-2.83,2.83V127.6a2.83,2.83,0,0,0,2.83,2.83h25.82a2.83,2.83,0,0,0,2.83-2.83V101.78A2.83,2.83,0,0,0,252.54,99Zm-18.39,18.84a1.41,1.41,0,0,1,0,1.88,1.21,1.21,0,0,1-1.81,0l-4.56-5,4.56-5a1.21,1.21,0,0,1,1.81,0,1.41,1.41,0,0,1,0,1.88l-2.84,3.1Zm9.29-7-4.94,9.88a1.42,1.42,0,0,1-2.54-1.27l4.94-9.88a1.42,1.42,0,1,1,2.54,1.27Zm3.63,8.84a1.21,1.21,0,0,1-1.81,0,1.41,1.41,0,0,1,0-1.88l2.84-3.1-2.84-3.1a1.41,1.41,0,0,1,0-1.88,1.21,1.21,0,0,1,1.81,0l4.56,5Z"/></g></svg>